<svg preserveAspectRatio="none" overflow="visible" style="display: block;" width="44" height="44" viewBox="0 0 44 44" fill="none" xmlns="http://www.w3.org/2000/svg">
<g id="streamline-flex:shopping-cart-2-solid">
<path id="Vector" fill-rule="evenodd" clip-rule="evenodd" d="M11.2854 10.2793C11.1581 9.50018 10.7555 8.79148 10.1496 8.28002C9.54367 7.76856 8.77404 7.48773 7.97847 7.48779H6.5099C5.97684 7.48779 5.46562 7.27772 5.08869 6.9038C4.71176 6.52987 4.5 6.02271 4.5 5.4939C4.5 4.96508 4.71176 4.45793 5.08869 4.084C5.46562 3.71007 5.97684 3.5 6.5099 3.5H7.97847C9.58269 3.49986 11.1432 4.01901 12.4229 4.97863C13.7027 5.93826 14.6319 7.28594 15.0694 8.81706H37.9287C39.408 8.81706 40.6192 10.0107 40.4906 11.4729C40.222 14.5657 39.496 17.6023 38.336 20.4853C38.0211 21.2558 37.5184 21.9368 36.873 22.4671C36.2275 22.9975 35.4595 23.3606 34.6378 23.524C32.8852 23.8803 30.2106 24.2418 26.5687 24.2418C23.9612 24.2418 21.7637 24.0558 20.0218 23.8191C19.0811 23.6978 18.1839 23.353 17.4062 22.8142L17.8136 25.2999C17.9409 26.079 18.3435 26.7877 18.9494 27.2992C19.5553 27.8106 20.325 28.0915 21.1205 28.0914H35.9884C36.5215 28.0914 37.0327 28.3015 37.4097 28.6754C37.7866 29.0493 37.9983 29.5565 37.9983 30.0853C37.9983 30.6141 37.7866 31.1213 37.4097 31.4952C37.0327 31.8691 36.5215 32.0792 35.9884 32.0792H21.1205C19.3702 32.0795 17.6769 31.4617 16.3438 30.3365C15.0106 29.2112 14.1248 27.652 13.8447 25.938L11.2854 10.2793ZM18.1754 39.3742C18.5798 39.3912 18.9836 39.3268 19.3623 39.1849C19.7411 39.0431 20.087 38.8267 20.3792 38.5488C20.6714 38.2709 20.904 37.9372 21.0629 37.5678C21.2217 37.1984 21.3036 36.8009 21.3036 36.3993C21.3036 35.9977 21.2217 35.6002 21.0629 35.2308C20.904 34.8615 20.6714 34.5278 20.3792 34.2498C20.087 33.9719 19.7411 33.7555 19.3623 33.6137C18.9836 33.4718 18.5798 33.4074 18.1754 33.4244C17.402 33.4569 16.6711 33.7845 16.1355 34.3388C15.5998 34.8932 15.3007 35.6314 15.3007 36.3993C15.3007 37.1672 15.5998 37.9054 16.1355 38.4598C16.6711 39.0142 17.402 39.3418 18.1754 39.3742ZM38.9872 36.3966C39.0043 36.7979 38.9394 37.1984 38.7964 37.5742C38.6534 37.9499 38.4353 38.293 38.1552 38.5829C37.875 38.8729 37.5386 39.1036 37.1663 39.2612C36.7939 39.4188 36.3933 39.5 35.9884 39.5C35.5836 39.5 35.183 39.4188 34.8106 39.2612C34.4382 39.1036 34.1019 38.8729 33.8217 38.5829C33.5416 38.293 33.3234 37.9499 33.1805 37.5742C33.0375 37.1984 32.9726 36.7979 32.9897 36.3966C33.0224 35.6294 33.3526 34.9044 33.9114 34.373C34.4702 33.8416 35.2144 33.5449 35.9884 33.5449C36.7625 33.5449 37.5067 33.8416 38.0655 34.373C38.6243 34.9044 38.9545 35.6294 38.9872 36.3966Z" fill="#FFD54A"/>
</g>
</svg>
